<?xml version="1.0" encoding="utf-8"?>
<!-- Generator: Adobe Illustrator 21.0.0, SVG Export Plug-In . SVG Version: 6.00 Build 0)  -->
<svg version="1.1" id="Capa_1" xmlns="http://www.w3.org/2000/svg" xmlns:xlink="http://www.w3.org/1999/xlink" x="0px" y="0px"
	 viewBox="0 0 17.4 17.4" style="enable-background:new 0 0 17.4 17.4;" xml:space="preserve">
<style type="text/css">
	.st0{fill:#FFFFFF;}
</style>
<g>
	<path class="st0" d="M9.8,2.3c-0.1-0.1-0.1-0.2,0-0.2l1.3-0.4c0.1,0,0.3-0.2,0.3-0.3L12,0.1c0-0.1,0.1-0.1,0.2,0l0.8,1.2
		c0.1,0.1,0.2,0.2,0.4,0.2l1.4,0c0.1,0,0.2,0.1,0.1,0.2l-0.9,1.1c-0.1,0.1-0.1,0.3-0.1,0.4l0.4,1.3c0,0.1,0,0.2-0.2,0.1l-1.3-0.5
		c-0.1,0-0.3,0-0.4,0.1L11.2,5C11.1,5.1,11,5,11,4.9l0.1-1.4c0-0.1-0.1-0.3-0.2-0.4L9.8,2.3z M10.9,6.6c0.2-0.1,0.1-0.3-0.1-0.4
		L8.4,5.7C8.2,5.6,7.9,5.4,7.9,5.2L7,2.9c-0.1-0.2-0.2-0.2-0.4,0L5.3,5C5.2,5.1,4.9,5.3,4.7,5.3L2.2,5.5C2,5.5,2,5.6,2.1,5.8
		l1.6,1.9c0.1,0.2,0.2,0.5,0.2,0.7l-0.6,2.4C3.2,11,3.3,11.1,3.5,11l2.3-0.9C6,10,6.3,10,6.5,10.1l2.1,1.3c0.2,0.1,0.3,0,0.3-0.2
		L8.7,8.8c0-0.2,0.1-0.5,0.3-0.7L10.9,6.6z M2.2,3.5l0.8,0.3C3,3.8,3,3.8,3,3.7L2.8,2.9c0-0.1,0-0.2,0-0.2L3.3,2
		c0-0.1,0-0.1-0.1-0.1l-0.8,0c-0.1,0-0.2-0.1-0.2-0.1L1.8,1.1c0-0.1-0.1-0.1-0.1,0L1.4,1.9c0,0.1-0.1,0.1-0.2,0.2L0.5,2.3
		c-0.1,0-0.1,0.1,0,0.1l0.6,0.5c0.1,0,0.1,0.1,0.1,0.2l0,0.8C1.1,4,1.2,4,1.3,4l0.7-0.5C2,3.5,2.1,3.5,2.2,3.5z M16.7,15.7L15.1,14
		L9.8,8.6C9.6,8.8,9.4,9.2,9.5,9.4l0.1,2l5.7,5.7c0.3,0.3,0.8,0.4,1.1,0.1l0.5-0.5C17.1,16.5,17.1,16,16.7,15.7z"/>
</g>
</svg>
