<?xml version="1.0" encoding="utf-8"?>
<!-- Generator: Adobe Illustrator 21.0.0, SVG Export Plug-In . SVG Version: 6.00 Build 0)  -->
<svg version="1.1" id="Capa_1" xmlns="http://www.w3.org/2000/svg" xmlns:xlink="http://www.w3.org/1999/xlink" x="0px" y="0px"
	 viewBox="0 0 26.8 26.8" style="enable-background:new 0 0 26.8 26.8;" xml:space="preserve">
<style type="text/css">
	.st0{fill:#FFFFFF;}
</style>
<g>
	<g>
		<path class="st0" d="M26.7,12.7c-0.1-2.5-0.9-4.8-2.3-6.8c-1.8-2.7-4.6-4.7-7.8-5.5c-1-0.3-2.1-0.4-3.2-0.4
			c-1.4,0-2.8,0.2-4.1,0.7c-3.1,1-5.8,3.2-7.4,6c-0.9,1.5-1.5,3.3-1.7,5.1C0,12.3,0,12.8,0,13.4c0,3,1,5.7,2.6,7.9
			c1.6,2.2,3.9,3.9,6.5,4.8c1.3,0.4,2.8,0.7,4.3,0.7c2,0,3.9-0.5,5.6-1.3c1.9-0.9,3.5-2.1,4.8-3.7c1.9-2.3,3-5.2,3-8.4
			C26.8,13.1,26.7,12.9,26.7,12.7z M24,12.7l-2.8,4.8l1.8,3.1c-1.2,1.6-2.8,3-4.7,3.8L17,22h-5.5l-1.7,2.9c-2.6-0.8-4.9-2.5-6.4-4.7
			l2.1-3.7l-2.8-4.8H1.4c0.3-1.9,0.9-3.6,1.9-5.1h3.8L10,1.9l0-0.1c1.1-0.3,2.3-0.5,3.5-0.5c0.9,0,1.7,0.1,2.5,0.3l-0.2,0.3l2.8,4.8
			h4.9c1.2,1.7,1.9,3.8,2,6H24z"/>
		<polygon class="st0" points="10.6,8.5 7.9,13.2 10.6,18 16.1,18 18.9,13.2 16.1,8.5 		"/>
	</g>
</g>
</svg>
